# xmcd
# 
# Track frame offsets:
#     150
#     23737
#     44327
#     68437
#     88537
#     112132
#     141267
#     166575
#     190510
#     212160
# 
# Disc length: 3021
# 
# Revision: 4
# Processed by: cddbd v1.5.2PL0 Copyright (c) Steve Scherf et al.
# Submitted via: fre:ac v1.0.17
# 
DISCID=7e0bcb0a
DTITLE=大滝詠一 - B-EACH TIME L-ong
DYEAR=1989
DGENRE=Pop
TTITLE0=カナリア諸島にて
TTITLE1=オリーブの午后
TTITLE2=夏のペーパーバック
TTITLE3=恋するカレン
TTITLE4=白い港
TTITLE5=ペパーミント・ブルー
TTITLE6=雨のウェンズデイ
TTITLE7=Water Color
TTITLE8=銀色のジェット
TTITLE9=夢で逢えたら
EXTD=
EXTT0=
EXTT1=
EXTT2=
EXTT3=
EXTT4=
EXTT5=
EXTT6=
EXTT7=
EXTT8=
EXTT9=
PLAYORDER=
